<svg width="25" height="25" fill="none" xmlns="http://www.w3.org/2000/svg"><path d="M19.208 1.95A12.503 12.503 0 001.95 19.208c.49.772 1.064 1.486 1.712 2.13A12.499 12.499 0 1021.34 3.664a12.27 12.27 0 00-2.132-1.712zm-1.691 9.082L12.9 15.648l-1.546 1.567a.54.54 0 01-.755-.024l-1.527-1.51-1.583-1.582a1.632 1.632 0 012.298-2.319l1.208 1.208 4.226-4.227a1.631 1.631 0 112.295 2.27z" fill="url(#paint0_linear_318_24)"/><defs><linearGradient id="paint0_linear_318_24" x1="-2.634" y1="-14.583" x2="32.544" y2="-10.295" gradientUnits="userSpaceOnUse"><stop stop-color="#3DA1DA"/><stop offset=".474" stop-color="#366CBD"/><stop offset=".958" stop-color="#3DACD0"/></linearGradient></defs></svg>