<svg width="34" height="34" fill="none" xmlns="http://www.w3.org/2000/svg"><path d="M18.392 0v3.83h9.07l-6.733 6.733a12.936 12.936 0 00-7.734-2.552C5.818 8.01 0 13.829 0 21.005 0 28.182 5.818 34 12.995 34c7.176 0 12.994-5.818 12.994-12.995 0-2.897-.948-5.573-2.552-7.734l6.733-6.733v9.07H34V0H18.392zm-5.397 29.72a8.715 8.715 0 110-17.43 8.715 8.715 0 010 17.43z" fill="url(#paint0_linear_482_196)"/><defs><linearGradient id="paint0_linear_482_196" x1="-3.582" y1="-19.833" x2="44.259" y2="-14.001" gradientUnits="userSpaceOnUse"><stop stop-color="#3DA1DA"/><stop offset=".474" stop-color="#366CBD"/><stop offset=".958" stop-color="#3DACD0"/></linearGradient></defs></svg>