<svg width="25" height="43" fill="none" xmlns="http://www.w3.org/2000/svg"><path d="M25 12.253C25 5.486 19.404 0 12.5 0S0 5.486 0 12.253c0 5.939 4.31 10.89 10.03 12.014v8.668H4.726v4.843h5.302V43h4.942v-5.221h5.302v-4.844h-5.302v-8.668C20.69 23.143 25 18.192 25 12.253zm-20.273 0c0-4.208 3.48-7.62 7.773-7.62 4.293 0 7.773 3.412 7.773 7.62 0 4.209-3.48 7.62-7.773 7.62-4.293 0-7.773-3.411-7.773-7.62z" fill="url(#paint0_linear_482_199)"/><defs><linearGradient id="paint0_linear_482_199" x1="23.339" y1="38.678" x2="-8.683" y2="20.153" gradientUnits="userSpaceOnUse"><stop stop-color="#FD2E91"/><stop offset="1" stop-color="#CF3CA6"/></linearGradient></defs></svg>