<svg width="25" height="25" viewBox="0 0 25 25" fill="none" xmlns="http://www.w3.org/2000/svg">
<path d="M19.2076 1.95038C16.8079 0.425522 13.9601 -0.236048 11.1341 0.0751003C8.30804 0.38628 5.67241 1.65137 3.66185 3.66174C1.65143 5.67211 0.386281 8.30799 0.0751254 11.1339C-0.236062 13.9599 0.425363 16.8079 1.95045 19.2076C2.43981 19.9795 3.01406 20.6944 3.66221 21.3389C6.00628 23.6831 9.18554 25 12.5006 25C15.8157 25 18.9951 23.6831 21.339 21.3389C23.6831 18.9949 25 15.8157 25 12.5007C25 9.18588 23.6831 6.00642 21.339 3.66255C20.6945 3.01441 19.9796 2.44031 19.2074 1.95083L19.2076 1.95038ZM17.5169 11.0318L12.9009 15.6477L11.3551 17.2147C11.1385 17.4129 10.8035 17.4021 10.6002 17.1905L9.07254 15.681L7.49047 14.099C7.07643 13.6886 6.91257 13.0884 7.06091 12.5244C7.20927 11.9606 7.64721 11.5187 8.20976 11.3651C8.77218 11.2117 9.37397 11.37 9.78817 11.7804L10.9958 12.988L15.2225 8.76136C15.5042 8.38185 15.9366 8.14317 16.4078 8.10711C16.8791 8.0712 17.3428 8.24152 17.6787 8.57379C18.0145 8.90623 18.1897 9.36804 18.1589 9.83958C18.1278 10.3111 17.8937 10.7461 17.5171 11.0316L17.5169 11.0318Z" fill="url(#paint0_linear_318_24)"/>
<defs>
<linearGradient id="paint0_linear_318_24" x1="-2.63393" y1="-14.5833" x2="32.5437" y2="-10.2952" gradientUnits="userSpaceOnUse">
<stop stop-color="#3DA1DA"/>
<stop offset="0.473958" stop-color="#366CBD"/>
<stop offset="0.958333" stop-color="#3DACD0"/>
</linearGradient>
</defs>
</svg>
