<svg width="34" height="34" viewBox="0 0 34 34" fill="none" xmlns="http://www.w3.org/2000/svg">
<path d="M18.3916 0V3.82991H27.462L20.7291 10.5628C18.568 8.95947 15.8923 8.01072 12.9947 8.01072C5.81792 8.01072 0 13.8286 0 21.0054C0 28.1821 5.81792 34 12.9946 34C20.1714 34 25.9893 28.1821 25.9893 21.0054C25.9893 18.1078 25.0405 15.432 23.4372 13.2709L30.1701 6.53809V15.6085H34V0H18.3916ZM12.9946 29.7202C8.18152 29.7202 4.27968 25.8184 4.27968 21.0053C4.27968 16.1922 8.18152 12.2903 12.9946 12.2903C17.8078 12.2903 21.7096 16.1922 21.7096 21.0053C21.7096 25.8185 17.8078 29.7202 12.9946 29.7202Z" fill="url(#paint0_linear_482_196)"/>
<defs>
<linearGradient id="paint0_linear_482_196" x1="-3.58214" y1="-19.8333" x2="44.2594" y2="-14.0014" gradientUnits="userSpaceOnUse">
<stop stop-color="#3DA1DA"/>
<stop offset="0.473958" stop-color="#366CBD"/>
<stop offset="0.958333" stop-color="#3DACD0"/>
</linearGradient>
</defs>
</svg>
