<svg width="25" height="43" viewBox="0 0 25 43" fill="none" xmlns="http://www.w3.org/2000/svg">
<path d="M25 12.2533C25 5.48603 19.4036 0 12.5 0C5.59638 0 0 5.48603 0 12.2533C0 18.1915 4.30929 23.1427 10.0294 24.2669V32.9348H4.72687V37.7785H10.0294V43H14.9706V37.7785H20.2731V32.9348H14.9706V24.2669C20.6908 23.1427 25 18.1915 25 12.2533ZM4.72687 12.2533C4.72687 8.04503 8.20699 4.63359 12.5 4.63359C16.793 4.63359 20.2731 8.04503 20.2731 12.2533C20.2731 16.4616 16.793 19.8731 12.5 19.8731C8.20699 19.8731 4.72687 16.4616 4.72687 12.2533Z" fill="url(#paint0_linear_482_199)"/>
<defs>
<linearGradient id="paint0_linear_482_199" x1="23.339" y1="38.678" x2="-8.6831" y2="20.1529" gradientUnits="userSpaceOnUse">
<stop stop-color="#FD2E91"/>
<stop offset="1" stop-color="#CF3CA6"/>
</linearGradient>
</defs>
</svg>
